<svg height="512pt" viewBox="0 0 512 512" width="512pt" xmlns="http://www.w3.org/2000/svg"><path d="m512 30.90625v450.1875c0 17.070312-13.835938 30.90625-30.90625 30.90625h-450.1875c-17.070312 0-30.90625-13.835938-30.90625-30.90625v-450.1875c0-17.070312 13.835938-30.90625 30.90625-30.90625h450.1875c17.070312 0 30.90625 13.835938 30.90625 30.90625zm0 0" fill="#439ef4"/><path d="m64.222656 512h-33.316406c-17.070312 0-30.90625-13.835938-30.90625-30.90625v-450.1875c0-17.070312 13.835938-30.90625 30.90625-30.90625h33.316406c-17.070312 0-30.90625 13.835938-30.90625 30.90625v450.1875c0 17.070312 13.835938 30.90625 30.90625 30.90625zm0 0" fill="#64b8ff"/><path d="m512 30.90625v450.1875c0 17.070312-13.835938 30.90625-30.90625 30.90625h-199.03125c152.582031-175.789062 169.96875-420.992188 170.824219-512h28.207031c17.070312 0 30.90625 13.835938 30.90625 30.90625zm0 0" fill="#1680f6"/><path d="m163.304688 420.035156h-43.265626c-5.691406 0-10.304687-4.613281-10.304687-10.300781v-214.519531c0-5.6875 4.613281-10.300782 10.304687-10.300782h43.265626c5.691406 0 10.304687 4.613282 10.304687 10.300782v214.519531c-.003906 5.6875-4.613281 10.300781-10.304687 10.300781zm0 0" fill="#deefff"/><path d="m402.265625 235.519531v174.214844c0 5.6875-4.617187 10.300781-10.300781 10.300781h-43.269532c-.472656 0-.9375-.03125-1.390624-.101562-5.039063-.671875-8.910157-4.988282-8.910157-10.199219v-140.34375c0-14.832031-12.15625-24.898437-24.992187-24.898437-5.523438 0-11.160156 1.855468-16.011719 5.996093-5.53125 4.71875-8.714844 11.632813-8.714844 18.90625v140.339844c0 5.6875-4.613281 10.300781-10.300781 10.300781h-43.269531c-5.683594 0-10.300781-4.613281-10.300781-10.300781v-214.523437c0-5.6875 4.617187-10.304688 10.300781-10.304688h43.269531c5.6875 0 10.300781 4.617188 10.300781 10.304688v14.996093c0 5.132813 6.046875 7.851563 9.878907 4.449219l18.914062-16.769531c9.425781-8.363281 21.582031-12.980469 34.183594-12.980469 27.949218 0 50.613281 22.664062 50.613281 50.613281zm0 0" fill="#deefff"/><path d="m402.265625 298.660156v111.074219c0 5.6875-4.617187 10.300781-10.300781 10.300781h-43.269532c-.472656 0-.9375-.03125-1.390624-.101562 22.878906-39.703125 40.855468-80.777344 54.960937-121.273438zm0 0" fill="#b8daef"/><path d="m173.09375 123.382812c0 17.351563-14.070312 31.421876-31.421875 31.421876s-31.421875-14.070313-31.421875-31.421876c0-17.355468 14.070312-31.421874 31.421875-31.421874s31.421875 14.066406 31.421875 31.421874zm0 0" fill="#deefff"/></svg>